<svg xmlns="http://www.w3.org/2000/svg" enable-background="new 0 0 512 512" viewBox="0 0 512 512"><path fill="#94c1ff" d="M466.279,27.066v75.582H45.721V27.066c0-10.471,8.472-19.038,19.038-19.038h382.482
			C457.807,8.028,466.279,16.594,466.279,27.066z"/><path fill="#fff" d="M466.279,102.647v382.287c0,10.471-8.472,19.038-19.038,19.038H64.759
			c-10.566,0-19.038-8.567-19.038-19.038V102.647h24.845c0-11.233,4.569-21.418,11.899-28.748
			c7.329-7.33,17.515-11.899,28.747-11.899h45.977c22.465,0,40.647,18.181,40.647,40.647H466.279z"/><path fill="#d7e9ff" d="M422.068,192.972v92.659c0,13.253-10.744,23.997-23.997,23.997H113.93
			c-13.253,0-23.997-10.744-23.997-23.997v-92.659c0-13.253,10.744-23.997,23.997-23.997H398.07
			C411.324,168.975,422.068,179.719,422.068,192.972z"/><path fill="#116fff" d="M447.244,0.029H64.756c-14.905,0-27.036,12.131-27.036,27.036c0,101.999,0,363.777,0,457.871
				c0,14.905,12.131,27.036,27.036,27.036h382.489c14.905,0,27.036-12.131,27.036-27.036c0-94.133,0-356.087,0-457.871
				C474.28,12.16,462.149,0.029,447.244,0.029z M53.718,27.065c0-6.085,4.953-11.038,11.038-11.038h382.489
				c6.085,0,11.038,4.953,11.038,11.038v67.586c-92.949,0-158.848,0-253.105,0c-3.828-23.036-23.888-40.652-47.987-40.652h-45.979
				c-24.379,0-44.25,17.808-47.995,40.652h-9.499V27.065z M458.282,484.935c0,6.085-4.953,11.038-11.038,11.038H64.756
				c-6.085,0-11.038-4.953-11.038-11.038V110.649c1.071,0,17.671,0,16.85,0c4.421,0,7.999-3.578,7.999-7.999
				c0-18.041,14.572-32.653,32.645-32.653h45.979c17.998,0,32.645,14.647,32.645,32.653c0,4.421,3.578,7.999,7.999,7.999
				c67.378,0,196.939,0,260.448,0V484.935z"/><path fill="#116fff" d="M112.524 103.947h46.456c4.421 0 7.999-3.578 7.999-7.999s-3.578-7.999-7.999-7.999h-46.456c-4.421 0-7.999 3.578-7.999 7.999S108.102 103.947 112.524 103.947zM346.365 63.334h6.14c4.421 0 7.999-3.578 7.999-7.999s-3.578-7.999-7.999-7.999h-6.14c-4.421 0-7.999 3.578-7.999 7.999S341.944 63.334 346.365 63.334zM385.259 63.334h6.14c4.421 0 7.999-3.578 7.999-7.999s-3.578-7.999-7.999-7.999h-6.14c-4.421 0-7.999 3.578-7.999 7.999S380.838 63.334 385.259 63.334zM424.145 63.334h6.14c4.421 0 7.999-3.578 7.999-7.999s-3.578-7.999-7.999-7.999h-6.14c-4.421 0-7.999 3.578-7.999 7.999S419.724 63.334 424.145 63.334zM81.933 192.976v92.654c0 17.646 14.35 31.996 31.996 31.996h284.14c17.646 0 31.996-14.35 31.996-31.996v-92.654c0-17.646-14.35-31.996-31.996-31.996H113.93C96.283 160.979 81.933 175.329 81.933 192.976zM414.068 192.976v92.654c0 8.819-7.179 15.998-15.998 15.998H113.93c-8.819 0-15.998-7.179-15.998-15.998v-92.654c0-8.819 7.179-15.998 15.998-15.998h284.14C406.889 176.978 414.068 184.156 414.068 192.976z"/><path fill="#116fff" d="M145.208 277.826c13.694 0 24.841-11.147 24.841-24.841v-44.198c0-4.421-3.578-7.999-7.999-7.999-4.421 0-7.999 3.578-7.999 7.999v44.198c0 4.874-3.968 8.843-8.843 8.843-4.874 0-8.835-3.968-8.835-8.843 0-4.421-3.578-7.999-7.999-7.999-4.421 0-7.999 3.578-7.999 7.999C120.374 266.678 131.514 277.826 145.208 277.826zM210.903 277.818c13.436 0 24.364-10.936 24.364-24.372v-28.302c0-13.436-10.928-24.372-24.364-24.372s-24.372 10.936-24.372 24.372v28.302C186.531 266.882 197.467 277.818 210.903 277.818zM202.529 225.144c0-4.617 3.757-8.374 8.374-8.374s8.366 3.757 8.366 8.374v28.302c0 4.617-3.75 8.374-8.366 8.374s-8.374-3.757-8.374-8.374V225.144zM257.281 277.833h19.334c12.811 0 23.232-10.429 23.232-23.24 0-5.886-2.253-11.208-5.847-15.317 3.593-4.091 5.847-9.39 5.847-15.25 0-12.811-10.421-23.24-23.232-23.24h-19.334c-4.421 0-7.999 3.578-7.999 7.999 0 2.098 0 64.904 0 61.048C249.282 274.256 252.86 277.833 257.281 277.833zM276.615 261.835H265.28v-14.577h11.335c3.992 0 7.234 3.289 7.234 7.335C283.848 258.586 280.607 261.835 276.615 261.835zM265.28 216.786h11.335c3.992 0 7.234 3.25 7.234 7.241s-3.242 7.234-7.234 7.234H265.28V216.786zM348.357 267.78l12.711-12.711c10.158 4.92 21.107 2.336 28.089-4.623 0-.008 0-.008.008-.008 9.577-9.593 9.577-25.193-.008-34.77-9.6-9.6-25.185-9.585-34.77 0-7.594 7.595-9.071 18.927-4.631 28.089l-12.711 12.711c-3.125 3.125-3.125 8.187 0 11.311C340.17 270.905 345.232 270.905 348.357 267.78zM365.699 226.98c3.349-3.35 8.81-3.337 12.147 0 3.343 3.343 3.343 8.796 0 12.147-3.406 3.406-8.741 3.406-12.147 0C362.348 235.776 362.348 230.331 365.699 226.98zM376.026 371.964H135.974c-4.421 0-7.999 3.578-7.999 7.999s3.578 7.999 7.999 7.999h240.051c4.421 0 7.999-3.578 7.999-7.999S380.447 371.964 376.026 371.964zM256 431.027H135.974c-4.421 0-7.999 3.578-7.999 7.999s3.578 7.999 7.999 7.999H256c4.421 0 7.999-3.578 7.999-7.999S260.421 431.027 256 431.027z"/></svg>